<svg width="325" height="86" viewBox="0 0 325 86" fill="none" xmlns="http://www.w3.org/2000/svg">
<path d="M302.452 16.4914C228 16.4914 234.407 78 167.305 78C92.5925 78 91.6409 16.4914 19.4523 16.4914C-52.7362 16.4914 93.9054 0 167.305 0C240.704 0 376.904 16.4914 302.452 16.4914Z" fill="#529A56"/>
<path d="M120.04 35C118.985 35 118.096 34.6387 117.374 33.916C116.651 33.1738 116.29 32.2852 116.29 31.25V20C116.29 18.9648 116.651 18.0859 117.374 17.3633C118.116 16.6211 119.005 16.25 120.04 16.25H135.04V20H121.915C121.388 20 120.938 20.1855 120.567 20.5566C120.216 20.9277 120.04 21.3672 120.04 21.875V29.375C120.04 29.9023 120.216 30.3516 120.567 30.7227C120.938 31.0742 121.388 31.25 121.915 31.25H129.415C129.923 31.25 130.362 31.0742 130.733 30.7227C131.104 30.3516 131.29 29.9023 131.29 29.375V27.5H123.79V23.75H135.04V31.25C135.04 32.3047 134.669 33.1934 133.927 33.916C133.184 34.6387 132.305 35 131.29 35H120.04ZM153.32 23.75V21.875C153.32 21.3672 153.134 20.9277 152.763 20.5566C152.392 20.1855 151.953 20 151.445 20H143.945C143.418 20 142.968 20.1855 142.597 20.5566C142.246 20.9277 142.07 21.3672 142.07 21.875V23.75H153.32ZM138.32 35V20C138.32 18.9648 138.681 18.0859 139.404 17.3633C140.146 16.6211 141.035 16.25 142.07 16.25H153.32C154.355 16.25 155.234 16.6211 155.957 17.3633C156.699 18.1055 157.07 18.9844 157.07 20V35H153.32V27.5H142.07V35H138.32ZM160.35 35V16.25H182.85C183.885 16.25 184.764 16.6211 185.487 17.3633C186.229 18.1055 186.6 18.9844 186.6 20V35H182.85V21.875C182.85 21.3672 182.664 20.9277 182.293 20.5566C181.922 20.1855 181.483 20 180.975 20H177.225C176.698 20 176.248 20.1855 175.877 20.5566C175.526 20.9277 175.35 21.3672 175.35 21.875V35H171.6V21.875C171.6 21.3672 171.414 20.9277 171.043 20.5566C170.672 20.1855 170.233 20 169.725 20H165.975C165.448 20 164.998 20.1855 164.627 20.5566C164.276 20.9277 164.1 21.3672 164.1 21.875V35H160.35ZM193.63 35C192.575 35 191.687 34.6387 190.964 33.916C190.241 33.1738 189.88 32.2852 189.88 31.25V16.25H208.63V20H195.505C194.978 20 194.529 20.1855 194.157 20.5566C193.806 20.9277 193.63 21.3672 193.63 21.875C193.63 22.4023 193.806 22.8516 194.157 23.2227C194.529 23.5742 194.978 23.75 195.505 23.75H208.63V27.5H195.505C194.978 27.5 194.529 27.6855 194.157 28.0566C193.806 28.4277 193.63 28.8672 193.63 29.375C193.63 29.9023 193.806 30.3516 194.157 30.7227C194.529 31.0742 194.978 31.25 195.505 31.25H208.63V35H193.63ZM127.54 65V46.25H131.29V65H127.54ZM134.57 65V46.25H149.57C150.605 46.25 151.484 46.6211 152.207 47.3633C152.949 48.1055 153.32 48.9844 153.32 50V65H149.57V51.875C149.57 51.3672 149.384 50.9277 149.013 50.5566C148.642 50.1855 148.203 50 147.695 50H138.32V65H134.57ZM156.6 65V46.25H175.35V50H162.225C161.698 50 161.248 50.1855 160.877 50.5566C160.526 50.9277 160.35 51.3672 160.35 51.875C160.35 52.4023 160.526 52.8516 160.877 53.2227C161.248 53.5742 161.698 53.75 162.225 53.75H175.35V57.5H162.225C161.698 57.5 161.248 57.6855 160.877 58.0566C160.526 58.4277 160.35 58.8672 160.35 59.375V65H156.6ZM191.755 61.25C192.263 61.25 192.702 61.0742 193.073 60.7227C193.445 60.3516 193.63 59.9023 193.63 59.375V51.875C193.63 51.3672 193.445 50.9277 193.073 50.5566C192.702 50.1855 192.263 50 191.755 50H184.255C183.728 50 183.279 50.1855 182.907 50.5566C182.556 50.9277 182.38 51.3672 182.38 51.875V59.375C182.38 59.9023 182.556 60.3516 182.907 60.7227C183.279 61.0742 183.728 61.25 184.255 61.25H191.755ZM182.38 65C181.325 65 180.437 64.6387 179.714 63.916C178.991 63.1738 178.63 62.2852 178.63 61.25V50C178.63 48.9648 178.991 48.0859 179.714 47.3633C180.456 46.6211 181.345 46.25 182.38 46.25H193.63C194.646 46.25 195.525 46.6211 196.267 47.3633C197.009 48.0859 197.38 48.9648 197.38 50V61.25C197.38 62.2852 197.009 63.1738 196.267 63.916C195.544 64.6387 194.665 65 193.63 65H182.38Z" fill="white"/>
</svg>
