<?xml version="1.0" encoding="utf-8"?>
<!-- Generator: Adobe Illustrator 25.2.1, SVG Export Plug-In . SVG Version: 6.00 Build 0)  -->
<svg version="1.1" id="Layer_1" xmlns="http://www.w3.org/2000/svg" xmlns:xlink="http://www.w3.org/1999/xlink" x="0px" y="0px"
	 viewBox="0 0 490.72 349.89" style="enable-background:new 0 0 490.72 349.89;" xml:space="preserve">
<style type="text/css">
	.st0{fill:#202950;}
	.st1{fill:#EA6653;}
	.st2{fill:#FCD33D;}
	.st3{fill:none;stroke:#FAEC18;stroke-width:0.1844;stroke-miterlimit:10;}
	.st4{fill:#FFFFFF;}
</style>
<path class="st0" d="M245.37,340.42c-63.36,0-122.48-10.39-166.45-29.26c-21.85-9.38-39.13-20.45-51.34-32.92
	c-12.85-13.12-19.64-27.66-19.64-42.05c0-18.39,10.03-35.53,29.06-49.74c10.83-35.01,31.34-66.67,59.45-91.73
	c26.97-24.04,60.02-41.16,95.85-49.67c8.85-21.4,29.61-35.46,53.08-35.46s44.23,14.06,53.08,35.46
	c35.82,8.51,68.88,25.63,95.85,49.67c28.11,25.06,48.62,56.72,59.45,91.73c19.03,14.2,29.06,31.35,29.06,49.74
	c0,14.4-6.79,28.94-19.64,42.05c-12.21,12.47-29.48,23.54-51.34,32.92C367.85,330.03,308.73,340.42,245.37,340.42z"/>
<path class="st1" d="M245.37,332.06c-62.26,0-120.2-10.15-163.16-28.59c-41.89-17.97-65.91-42.5-65.91-67.29
	c0-16.34,9.63-31.72,27.89-44.62c10.16-34.62,30.1-65.89,57.82-90.6c27.09-24.15,60.38-40.95,96.56-48.76
	c6.42-20.15,25.27-34.25,46.79-34.25c21.52,0,40.37,14.1,46.79,34.25c36.18,7.82,69.47,24.61,96.56,48.77
	c27.72,24.71,47.66,55.98,57.82,90.6c18.26,12.9,27.89,28.28,27.89,44.62c0,24.79-24.02,49.32-65.91,67.29
	C365.57,321.9,307.62,332.06,245.37,332.06z"/>
<path class="st2" d="M245.37,323.69c-132.02,0-220.7-45.25-220.7-87.51c0-17.6,13.93-30.91,26.75-39.43
	C70.67,126.9,130.61,73.6,205.36,59.35c3.65-18.75,20.31-33.04,40-33.04c19.69,0,36.36,14.29,40,33.04
	c74.76,14.26,134.69,67.55,153.95,137.4c12.81,8.52,26.75,21.83,26.75,39.43C466.07,278.44,377.39,323.69,245.37,323.69z"/>
<path class="st0" d="M431.85,202.23c-0.17-0.66-0.33-1.33-0.51-1.99c-18.44-68.59-78.7-121.55-153.81-133.53
	c-0.3-17.6-14.7-31.83-32.37-31.83s-32.07,14.23-32.37,31.83C137.68,78.69,77.42,131.64,58.98,200.23
	c-0.18,0.66-0.34,1.33-0.51,1.99c-16.36,10.15-25.65,21.79-25.65,34.16c0,35.12,83.59,79.15,212.34,79.15s212.34-44.03,212.34-79.15
	C457.5,224.02,448.21,212.38,431.85,202.23z M245.16,53.08c6.92,0,12.69,4.98,13.94,11.55c-4.6-0.31-9.25-0.48-13.94-0.48
	c-4.69,0-9.33,0.17-13.93,0.48C232.47,58.06,238.24,53.08,245.16,53.08z"/>
<path class="st3" d="M245.37,92.28"/>
<g>
	<g>
		<g>
			<g>
				<path class="st4" d="M71.01,257.32c-1.13-0.91-2.01-1.74-2.62-2.49c-0.05-2.52-0.07-4.12-0.12-7.44
					c1.72,0.68,2.58,1.02,4.31,1.67c0.02,0.92,0.12,1.6,0.31,2.07c0.19,0.48,0.53,0.81,1.01,1c0.4,0.16,0.69,0.14,0.86-0.06
					c0.17-0.21,0.25-0.59,0.24-1.16c-0.01-0.48-0.1-0.93-0.28-1.34c-0.18-0.41-0.48-0.88-0.9-1.39c-0.68-0.79-1.02-1.18-1.7-1.97
					c-1.47-1.78-2.52-3.6-3.17-5.48c-0.65-1.88-0.99-4.23-1.01-6.87c-0.03-3.21,0.45-5.17,1.43-6.35c0.98-1.19,2.62-1.6,4.94-1.44
					c1.11,0.08,2.16,0.31,3.15,0.77c0.99,0.46,1.79,1.06,2.41,1.85c0.05,2.71,0.08,4.34,0.14,7.74c-1.56-0.3-2.33-0.45-3.88-0.76
					c-0.02-1.51-0.44-2.29-1.23-2.43c-0.39-0.07-0.66-0.01-0.82,0.17c-0.16,0.18-0.23,0.54-0.23,1.1c0.01,0.49,0.11,0.91,0.3,1.25
					c0.19,0.34,0.5,0.72,0.93,1.15c0.68,0.7,1.03,1.06,1.71,1.78c1.39,1.46,2.42,3.25,3.09,5.35c0.67,2.1,1.03,4.79,1.09,7.82
					c0.09,4.14-0.41,6.69-1.49,7.87c-1.08,1.17-2.71,1.02-4.88-0.08C73.35,259.01,72.15,258.23,71.01,257.32z"/>
				<path class="st4" d="M83.19,256.42c0.39,0.15,0.59,0.22,0.98,0.37c-0.2-8.56-0.3-14.39-0.46-22.8
					c-0.39-0.06-0.58-0.09-0.97-0.15c-0.06-3.03-0.08-4.45-0.13-6.77c3.4,0.22,5.1,0.33,8.53,0.52c1.68,0.1,2.98,0.87,3.91,2.64
					c0.93,1.77,1.44,4.77,1.54,9.37c0.1,4.61-0.28,8.1-1.12,10.02c-0.85,1.93-2.12,2.62-3.81,2.15c-0.86-0.24-1.29-0.36-2.15-0.6
					c0.07,3.14,0.1,4.7,0.17,7.59c0.76,0.26,1.14,0.39,1.89,0.65c0.08,3.35,0.13,4.93,0.21,7.61c-3.37-1.4-5.06-2.13-8.42-3.66
					C83.29,260.96,83.26,259.5,83.19,256.42z M90.02,243.52c0.76,0.16,1.11-0.96,1.07-3.27c-0.02-0.78-0.02-1.17-0.04-1.93
					c-0.02-1.16-0.14-2.01-0.34-2.56c-0.2-0.55-0.49-0.85-0.87-0.9c-0.27-0.04-0.4-0.05-0.66-0.09c0.07,3.24,0.1,5.03,0.17,8.61
					C89.62,243.44,89.75,243.47,90.02,243.52z"/>
				<path class="st4" d="M111.96,265.61c0.32,0.09,0.48,0.13,0.8,0.21c0.09,3.92,0.14,5.78,0.24,9.03c-3.14-1.02-4.7-1.56-7.83-2.67
					c-0.1-3.06-0.15-4.82-0.24-8.55c0.48,0.14,0.72,0.21,1.19,0.35c-0.17-1.87-0.26-2.83-0.43-4.78c-1.08-0.28-1.62-0.42-2.7-0.71
					c-0.08,1.85-0.12,2.76-0.21,4.51c0.48,0.14,0.72,0.21,1.19,0.35c0.09,3.7,0.14,5.45,0.24,8.48c-2.72-0.98-4.08-1.49-6.79-2.55
					c-0.09-2.84-0.14-4.51-0.23-8.02c0.32,0.1,0.47,0.15,0.79,0.25c0.83-11.15,1.56-22.33,2.58-33.44c2.87,0.14,4.32,0.2,7.22,0.33
					C109.44,240.81,110.59,253.21,111.96,265.61z M103.29,252.22c0.73,0.16,1.1,0.24,1.83,0.4c-0.43-4.98-0.65-7.54-1.07-12.26
					c-0.08-0.01-0.12-0.02-0.2-0.03C103.62,244.96,103.51,247.44,103.29,252.22z"/>
				<path class="st4" d="M116.45,271.58c-1.46-4.01-2.29-10.49-2.48-19.66c-0.35-17.51,2.11-23.87,7.42-23.72
					c1.29,0.04,2.5,0.46,3.63,1.32c1.13,0.87,1.98,1.86,2.55,2.98c0.11,5.87,0.17,9.32,0.28,16.23c-1.96-0.25-2.94-0.38-4.89-0.64
					c-0.03-1.95-0.05-2.91-0.09-4.81c-0.03-1.66-0.17-2.88-0.41-3.66c-0.25-0.79-0.6-1.19-1.06-1.23c-0.46-0.04-0.8,0.3-1.01,1.03
					c-0.22,0.73-0.31,1.9-0.28,3.54c0.15,7.84,0.22,12.23,0.38,20.11c0.03,1.65,0.17,2.87,0.42,3.68c0.25,0.81,0.6,1.27,1.06,1.38
					c0.46,0.11,0.79-0.19,1.01-0.9c0.21-0.71,0.3-1.89,0.27-3.57c-0.04-2.14-0.06-3.23-0.1-5.43c1.95,0.36,2.92,0.53,4.88,0.87
					c0.12,7.18,0.19,10.79,0.33,16.91c-0.53,0.96-1.33,1.72-2.39,2.26c-1.06,0.54-2.23,0.59-3.5,0.22
					C119.92,277.74,117.92,275.59,116.45,271.58z"/>
				<path class="st4" d="M131.24,280.18c-0.09-3.65-0.13-5.71-0.21-10.01c0.41,0.09,0.61,0.13,1.02,0.21
					c-0.18-10.38-0.33-20.76-0.5-31.13c-0.41-0.03-0.62-0.05-1.03-0.08c-0.07-4.29-0.11-6.34-0.18-9.96
					c5.57,0.15,8.39,0.23,14.1,0.36c0.11,7.16,0.15,11.62,0.25,20.5c-1.88-0.19-2.82-0.28-4.68-0.48c-0.05-3.99-0.07-5.97-0.12-9.73
					c-1.01-0.07-1.52-0.11-2.52-0.18c0.06,4.26,0.09,6.52,0.15,11.07c0.73,0.08,1.1,0.13,1.83,0.21c0.04,3.31,0.06,4.99,0.11,8.31
					c-0.73-0.1-1.1-0.16-1.82-0.26c0.07,5.15,0.11,7.73,0.18,12.53c1,0.19,1.5,0.29,2.5,0.48c-0.07-4.31-0.1-6.6-0.15-11.19
					c1.86,0.27,2.79,0.4,4.67,0.66c0.1,9.51,0.16,14.36,0.3,22C139.51,282.26,136.74,281.61,131.24,280.18z"/>
				<path class="st4" d="M159.18,280.91c-1.49-4.6-2.23-12.25-2.33-23.05c-0.08-8.84-0.64-27.48,8.36-28.77
					c1.15-0.17,2.7,0.52,3.9,1.54c1.21,1.03,2.11,2.19,2.7,3.51c0,6.95,0,10.92-0.02,18.84c-2.11-0.15-3.17-0.23-5.26-0.39
					c0-2.26,0-3.38-0.01-5.59c0-1.94-0.13-3.35-0.38-4.26c-0.25-0.91-0.62-1.37-1.12-1.39c-0.5-0.03-0.87,0.4-1.11,1.27
					c-0.24,0.88-0.36,2.26-0.36,4.19c0.02,9.2,0.03,14.24,0.06,23.43c0.01,1.93,0.13,3.34,0.38,4.26c0.25,0.92,0.61,1.41,1.1,1.48
					c0.49,0.07,0.85-0.32,1.09-1.19c0.24-0.86,0.36-2.25,0.36-4.19c0-2.48-0.01-3.75-0.01-6.29c2.08,0.22,3.13,0.32,5.23,0.53
					c-0.01,8.21-0.02,12.34-0.01,19.5c-0.59,1.21-1.46,2.22-2.61,3.04c-1.15,0.82-2.39,1.09-3.73,0.86
					C162.75,287.79,160.67,285.51,159.18,280.91z"/>
				<path class="st4" d="M193.22,242.56c-0.44-0.01-0.66-0.02-1.09-0.04c-0.1,12.17-0.22,24.33-0.32,36.5
					c0.44,0.04,0.66,0.06,1.1,0.1c-0.04,5.11-0.05,7.57-0.07,12.04c-3.34-0.38-5.03-0.59-8.37-1.01c0.02-4.39,0.04-6.82,0.07-11.85
					c0.43,0.04,0.64,0.07,1.07,0.11c0.04-5.07,0.06-7.76,0.11-13.14c-1.26-0.1-1.89-0.15-3.14-0.26c-0.04,5.35-0.06,8.02-0.09,13.06
					c0.43,0.05,0.64,0.07,1.07,0.11c-0.03,5.02-0.05,7.44-0.07,11.83c-3.34-0.44-4.99-0.66-8.28-1.14c-0.01-4.3,0-6.68,0.01-11.62
					c0.44,0.05,0.66,0.08,1.1,0.13c0.03-11.83,0.09-23.67,0.13-35.5c-0.45-0.02-0.67-0.03-1.12-0.05c0.01-4.96,0.02-7.35,0.02-11.68
					c3.39,0.05,5.11,0.08,8.56,0.14c-0.02,4.42-0.04,6.86-0.07,11.91c-0.44-0.02-0.65-0.03-1.09-0.04
					c-0.03,4.67-0.05,7.12-0.09,12.04c1.26,0.08,1.89,0.12,3.16,0.2c0.05-4.95,0.07-7.42,0.11-12.11c-0.44-0.02-0.66-0.03-1.09-0.04
					c0.04-5.06,0.06-7.5,0.08-11.93c3.46,0.05,5.09,0.08,8.39,0.12C193.29,234.94,193.27,237.43,193.22,242.56z"/>
				<path class="st4" d="M197.25,291.64c0.01-4.51,0.03-6.99,0.06-12.14c0.44,0.04,0.66,0.05,1.1,0.09
					c0.07-12.29,0.18-24.58,0.27-36.87c-0.44-0.01-0.65-0.02-1.09-0.03c0.04-5.17,0.06-7.66,0.08-12.21
					c5.87,0.06,8.79,0.08,14.61,0.1c-0.04,8.56-0.08,13.67-0.14,23.85c-1.93-0.06-2.9-0.09-4.84-0.16
					c0.03-4.62,0.04-6.92,0.07-11.33c-1.05-0.02-1.57-0.04-2.62-0.06c-0.03,5.03-0.05,7.67-0.09,12.96
					c0.76,0.03,1.15,0.05,1.91,0.07c-0.02,3.83-0.04,5.77-0.06,9.61c-0.76-0.04-1.15-0.06-1.91-0.1c-0.04,5.98-0.05,8.97-0.08,14.61
					c1.06,0.07,1.58,0.11,2.64,0.18c0.02-5.03,0.03-7.67,0.06-12.98c1.95,0.1,2.92,0.14,4.85,0.23
					c-0.05,10.88-0.07,16.39-0.07,25.46C206.14,292.51,203.19,292.25,197.25,291.64z"/>
				<path class="st4" d="M216.31,293.23c-0.01-4.65-0.01-7.19,0.01-12.47c0.43,0.02,0.65,0.03,1.08,0.05
					c0.03-12.56,0.09-25.12,0.16-37.68c-0.43-0.01-0.65-0.01-1.08-0.02c0.03-5.29,0.04-7.85,0.07-12.52c5.14,0.01,7.71,0.01,12.81,0
					c-0.04,7.46-0.06,11.78-0.1,20.54c-1.51-0.02-2.27-0.02-3.79-0.05c0.01-3.2,0.02-4.79,0.04-7.87c-0.78-0.01-1.17-0.01-1.95-0.02
					c-0.03,5.38-0.04,8.22-0.06,13.89c1.3,0.03,1.94,0.04,3.24,0.06c-0.02,3.9-0.02,5.88-0.03,9.79c-1.29-0.03-1.94-0.04-3.24-0.08
					c-0.02,5.81-0.03,8.71-0.03,14.21c1.13,0.04,1.69,0.06,2.82,0.1c0,5.32,0,7.89,0.02,12.59
					C222.3,293.59,220.31,293.48,216.31,293.23z"/>
				<path class="st4" d="M234.41,293.85c-1.22-0.82-2.17-1.77-2.83-2.83c-0.02-5.91-0.02-9.17-0.01-15.82
					c1.88,0.04,2.82,0.05,4.7,0.07c0,1.74,0.1,2.99,0.3,3.76c0.2,0.78,0.56,1.16,1.09,1.17c0.44,0,0.76-0.25,0.95-0.77
					c0.19-0.52,0.29-1.3,0.29-2.36c0-0.89-0.09-1.67-0.28-2.31c-0.18-0.65-0.5-1.31-0.96-1.99c-0.73-1.03-1.1-1.54-1.83-2.58
					c-1.58-2.41-2.7-5.27-3.39-8.55c-0.68-3.29-1.01-7.74-0.99-13.15c0.03-6.59,0.6-11.28,1.72-14.37c1.12-3.09,2.96-4.52,5.53-4.53
					c1.23-0.01,2.39,0.4,3.47,1.24c1.08,0.84,1.94,1.98,2.6,3.44c-0.03,5.43-0.05,8.38-0.07,14.4c-1.7,0.01-2.55,0.01-4.25,0.01
					c0.01-2.8-0.42-4.16-1.3-4.16c-0.43,0-0.73,0.21-0.91,0.62c-0.18,0.41-0.27,1.14-0.28,2.2c0,0.95,0.1,1.7,0.3,2.27
					c0.2,0.56,0.54,1.16,1,1.78c0.74,1.02,1.11,1.53,1.84,2.56c1.49,2.05,2.58,4.74,3.26,8.05c0.68,3.31,1.02,7.67,1.02,12.91
					c0,7.15-0.58,12.21-1.78,15.49c-1.2,3.28-2.97,4.77-5.32,4.73C236.93,295.09,235.64,294.67,234.41,293.85z"/>
				<path class="st4" d="M258.78,293.97c-0.04-4.75-0.05-7.34-0.07-12.7c0.42-0.01,0.63-0.02,1.06-0.03
					c-0.04-12.71-0.02-25.41,0.04-38.12c-0.42,0.01-0.63,0.01-1.06,0.01c0.03-5.35,0.04-7.95,0.08-12.69
					c5.05-0.04,7.57-0.07,12.61-0.11c-0.07,7.44-0.1,11.74-0.13,20.45c-1.49,0.04-2.23,0.06-3.72,0.09c0.01-3.2,0.02-4.79,0.03-7.88
					c-0.77,0.01-1.15,0.02-1.92,0.03c-0.03,5.4-0.04,8.24-0.05,13.93c1.27-0.03,1.91-0.05,3.18-0.08c-0.01,3.9-0.01,5.87-0.01,9.78
					c-1.27,0.04-1.91,0.06-3.18,0.1c0,5.83,0.01,8.75,0.03,14.28c1.1-0.04,1.66-0.07,2.76-0.11c0.02,5.33,0.04,7.91,0.08,12.64
					C264.63,293.78,262.68,293.85,258.78,293.97z"/>
				<path class="st4" d="M275.41,280.59c0.42-0.02,0.63-0.04,1.05-0.06c-0.05-12.57-0.04-25.14,0.03-37.7
					c-0.42,0.01-0.63,0.01-1.05,0.02c0.03-5.3,0.05-7.86,0.1-12.55c3.87-0.04,5.8-0.06,9.66-0.09c1.81-0.02,3.17,1.19,4.1,3.77
					c0.93,2.59,1.36,6.93,1.33,13.39c-0.02,3.64-0.22,6.88-0.6,9.63c-0.38,2.76-0.92,4.69-1.62,5.8c0.01,0.34,0.01,0.5,0.02,0.84
					c1.34,0.76,2.01,4.06,2.03,9.69c0.01,2.53,0.01,3.78,0.02,6.22c0.39-0.03,0.59-0.05,0.99-0.08c0.03,5.2,0.05,7.72,0.09,12.34
					c-2.66,0.27-3.99,0.4-6.66,0.64c-0.07-6.67-0.09-10.47-0.11-18.23c-0.01-2.14-0.09-3.78-0.25-4.89
					c-0.16-1.11-0.42-1.85-0.76-2.22c-0.34-0.38-0.83-0.54-1.46-0.51c0,5.54,0.01,8.31,0.04,13.58c0.55-0.04,0.83-0.06,1.39-0.1
					c0.03,5.26,0.04,7.8,0.09,12.47c-3.33,0.28-4.99,0.41-8.33,0.64C275.45,288.46,275.43,285.89,275.41,280.59z M283.45,256.2
					c0.41-0.02,0.71-0.47,0.92-1.34c0.2-0.88,0.31-2.24,0.32-4.07c0-1.2,0.01-1.79,0.01-2.98c0.01-1.8-0.09-3.11-0.28-3.94
					c-0.2-0.83-0.5-1.23-0.91-1.22c-0.45,0.01-0.68,0.02-1.13,0.03c-0.03,5.26-0.04,8.02-0.05,13.56
					C282.77,256.23,282.99,256.22,283.45,256.2z"/>
				<path class="st4" d="M297.15,285.25c-1.43-4.63-2.18-12.8-2.17-24.53c0.01-11.72,0.77-19.95,2.21-24.74
					c1.44-4.8,3.46-6.89,6.03-6.9c2.56-0.02,4.51,2.03,5.84,6.65c1.34,4.62,1.94,12.51,1.93,23.88
					c-0.01,11.37-0.63,19.41-1.98,24.26c-1.35,4.85-3.3,7.21-5.86,7.55C300.58,291.75,298.58,289.89,297.15,285.25z M304.09,276.85
					c0.23-0.96,0.34-2.44,0.34-4.47c-0.03-9.66-0.03-14.9,0.02-24.55c0.01-2.02-0.1-3.48-0.33-4.41c-0.23-0.93-0.58-1.38-1.06-1.36
					c-0.48,0.02-0.84,0.49-1.08,1.44c-0.24,0.95-0.37,2.43-0.38,4.46c-0.05,9.7-0.05,14.97-0.02,24.68
					c0.01,2.09,0.13,3.57,0.38,4.46c0.24,0.89,0.6,1.31,1.08,1.26C303.51,278.32,303.86,277.82,304.09,276.85z"/>
				<path class="st4" d="M336.81,240.52c-0.41,0.02-0.61,0.04-1.02,0.06c-0.11,11.17-0.18,22.32-0.21,33.48
					c0.4-0.07,0.61-0.1,1.01-0.17c0,4.66,0,6.91,0.02,10.97c-3.05,0.63-4.57,0.93-7.61,1.5c-0.03-4.18-0.04-6.49-0.05-11.27
					c0.39-0.06,0.58-0.09,0.97-0.15c-0.01-10.17,0-16.01,0.09-26.62c-1.22,12.83-2.28,25.66-3.46,38.48
					c-1.19,0.22-1.78,0.32-2.96,0.53c-1.43-12.6-2.5-25.26-3.54-37.93c-0.06,10.74-0.07,16.63-0.03,26.94
					c0.38-0.05,0.57-0.08,0.96-0.13c0.02,4.89,0.03,7.25,0.07,11.55c-2.61,0.44-3.91,0.65-6.5,1.05c-0.05-4.39-0.07-6.79-0.09-11.77
					c0.4-0.05,0.59-0.07,0.99-0.12c-0.06-11.78-0.04-23.56,0.06-35.34c-0.4,0.02-0.6,0.02-0.99,0.04c0.04-4.96,0.07-7.35,0.15-11.71
					c3.64-0.04,5.48-0.06,9.18-0.12c0.7,8.06,1.07,12.94,1.86,22.54c0.86-9.74,1.32-14.63,2.28-22.61c3.58-0.07,5.39-0.1,9-0.18
					C336.9,233.61,336.87,235.86,336.81,240.52z"/>
				<path class="st4" d="M350.91,281.47c-1.15-0.35-2.03-0.89-2.65-1.61c0.01-4.87,0.02-7.6,0.06-13.2c1.79-0.31,2.68-0.47,4.47-0.8
					c-0.01,1.43,0.07,2.44,0.26,3.04c0.18,0.6,0.53,0.84,1.03,0.74c0.42-0.08,0.72-0.36,0.9-0.82c0.18-0.46,0.28-1.12,0.29-1.98
					c0.01-0.73-0.07-1.34-0.25-1.84c-0.17-0.49-0.47-0.98-0.9-1.46c-0.69-0.72-1.03-1.08-1.73-1.82c-1.48-1.74-2.54-3.97-3.17-6.64
					c-0.63-2.68-0.92-6.41-0.85-10.97c0.08-5.55,0.68-9.49,1.79-12.06c1.11-2.58,2.91-3.74,5.38-3.82c1.19-0.04,2.29,0.25,3.31,0.87
					c1.02,0.62,1.84,1.46,2.45,2.56c-0.1,4.2-0.15,6.54-0.23,11.34c-1.62,0.17-2.44,0.26-4.06,0.42c0.04-2.27-0.36-3.33-1.21-3.26
					c-0.41,0.03-0.7,0.23-0.88,0.58c-0.18,0.35-0.27,0.95-0.29,1.82c-0.01,0.78,0.08,1.39,0.27,1.83c0.19,0.44,0.5,0.89,0.94,1.35
					c0.7,0.75,1.04,1.13,1.74,1.88c1.41,1.49,2.42,3.52,3.03,6.08c0.61,2.56,0.89,5.99,0.84,10.15c-0.07,5.67-0.68,9.74-1.84,12.58
					c-1.16,2.84-2.84,4.46-5.05,5.05C353.28,281.82,352.06,281.83,350.91,281.47z"/>
				<path class="st4" d="M364.37,268.35c0.4-0.09,0.6-0.14,1-0.24c0.12-9.93,0.28-19.87,0.5-29.81c-0.4,0.04-0.61,0.06-1.01,0.09
					c0.09-4.17,0.13-6.17,0.23-9.72c3.56-0.14,5.32-0.22,8.83-0.37c1.72-0.08,2.99,0.77,3.83,2.69c0.84,1.92,1.2,5.19,1.08,10.25
					c-0.12,5.06-0.65,8.99-1.59,11.53c-0.94,2.54-2.26,4.01-3.96,4.37c-0.87,0.18-1.3,0.27-2.17,0.45
					c-0.06,3.76-0.09,5.63-0.15,9.14c0.76-0.2,1.14-0.29,1.9-0.49c-0.06,3.96-0.09,5.85-0.13,9.17c-3.36,1.09-5.06,1.61-8.46,2.61
					C364.3,274.49,364.32,272.5,364.37,268.35z M371.95,248.13c0.77-0.12,1.18-1.59,1.24-4.32c0.02-0.92,0.03-1.38,0.05-2.29
					c0.03-1.38-0.04-2.37-0.22-2.98c-0.18-0.61-0.46-0.9-0.85-0.86c-0.27,0.03-0.41,0.04-0.68,0.07c-0.09,4.02-0.14,6.18-0.22,10.49
					C371.54,248.2,371.68,248.18,371.95,248.13z"/>
				<path class="st4" d="M393.48,260.06c0.3-0.1,0.45-0.15,0.75-0.26c-0.08,3.38-0.11,4.97-0.17,7.69
					c-2.94,1.24-4.43,1.84-7.43,2.99c0.05-2.95,0.09-4.66,0.16-8.25c0.46-0.14,0.69-0.22,1.15-0.36c-0.09-1.7-0.13-2.58-0.21-4.39
					c-1.04,0.29-1.57,0.44-2.62,0.72c-0.16,1.91-0.24,2.85-0.4,4.67c0.46-0.14,0.69-0.21,1.16-0.35c-0.07,3.62-0.11,5.34-0.16,8.32
					c-2.63,1-3.95,1.48-6.62,2.42c0.05-3.16,0.08-4.97,0.14-8.77c0.31-0.09,0.47-0.13,0.78-0.22c1.29-12.15,2.48-24.3,4.15-36.45
					c2.83-0.14,4.23-0.22,7-0.36C392.04,238.3,392.71,249.2,393.48,260.06z M385.68,251.79c0.71-0.16,1.06-0.24,1.77-0.41
					c-0.2-4.67-0.3-7.1-0.5-11.66c-0.08,0.01-0.12,0.02-0.19,0.03C386.33,244.41,386.11,246.92,385.68,251.79z"/>
				<path class="st4" d="M397.85,262.41c-1.2-2.39-1.72-7.53-1.51-15.38c0.39-14.99,3.05-20.59,7.75-20.83
					c1.14-0.06,2.18,0.16,3.12,0.66c0.94,0.5,1.63,1.08,2.08,1.76c-0.11,3.91-0.18,6.36-0.31,11.24c-1.69,0.41-2.54,0.61-4.27,1
					c0.04-1.47,0.06-2.2,0.1-3.63c0.04-1.25-0.04-2.14-0.23-2.68c-0.19-0.54-0.48-0.78-0.89-0.72c-0.41,0.06-0.73,0.39-0.95,1.01
					c-0.22,0.62-0.35,1.56-0.39,2.85c-0.17,6.15-0.27,9.66-0.42,15.76c-0.03,1.28,0.05,2.16,0.24,2.66c0.19,0.5,0.49,0.67,0.91,0.51
					c0.41-0.16,0.73-0.56,0.94-1.2c0.22-0.64,0.34-1.57,0.38-2.82c0.04-1.59,0.06-2.41,0.11-4.07c1.73-0.53,2.59-0.8,4.28-1.35
					c-0.13,5.04-0.2,7.57-0.29,11.52c-0.5,0.94-1.24,1.91-2.21,2.93c-0.97,1.02-2.03,1.8-3.17,2.35
					C400.82,265.06,399.05,264.8,397.85,262.41z"/>
				<path class="st4" d="M410.86,259.58c0.05-2.12,0.08-3.41,0.15-6.2c0.35-0.15,0.52-0.22,0.87-0.38
					c0.19-7.55,0.33-12.86,0.54-20.54c-0.34,0.06-0.52,0.08-0.86,0.14c0.08-2.83,0.11-4.16,0.17-6.36c4.64-0.3,6.87-0.44,11.12-0.72
					c-0.04,3.13-0.09,5.58-0.18,10.38c-1.44,0.41-2.17,0.61-3.64,1.02c0.05-2.34,0.08-3.49,0.13-5.61c-0.79,0.14-1.19,0.21-2,0.35
					c-0.06,2.5-0.09,3.89-0.16,6.67c0.59-0.16,0.88-0.25,1.47-0.41c-0.05,1.96-0.07,2.97-0.12,4.93c-0.59,0.21-0.88,0.31-1.47,0.52
					c-0.08,3.13-0.11,4.7-0.18,7.47c0.82-0.38,1.23-0.57,2.03-0.96c0.05-2.37,0.08-3.7,0.15-6.38c1.49-0.56,2.22-0.84,3.67-1.41
					c-0.11,5.13-0.16,7.76-0.2,10.91C417.9,255.77,415.6,257.08,410.86,259.58z"/>
			</g>
		</g>
	</g>
	<path class="st4" d="M218.21,163.95c0.55-4.98,0.86-8.12,0.86-8.12s11.35-1.07,20.94-1.2l-1.58,28.17
		c-0.36,9.2-5.36,16.54-10.54,20.85c-5.41,4.51-12.33,6.54-23.21,7.15c-15.61,0.88-25.87-6.19-28.91-21.23
		c-3.22-15.93,0.53-35.97,6.75-54.26c10.09-29.7,24.92-40.98,43.05-42.87c11.05-1.15,17.59,7.67,17.01,15.92
		c-0.42,5.95-0.6,8.99-0.6,8.99c-9.34-0.13-18.27,0.9-18.27,0.9s0.5-3.14,0.86-5.96c0.39-3.1,1.32-7.08-2.08-6.82
		c-4.98,0.37-7.73,6.41-8.87,10.31c-0.86,2.92-2.05,6.12-4.28,18.56c-2.3,12.85-3.84,23.34-4.61,29.79
		c-0.49,4.08-0.69,11.44,5.76,11.1C216.7,174.88,217.71,168.54,218.21,163.95z"/>
	<path class="st4" d="M323.51,161.12c0,0,5.19,21.06,6.99,28.12c1.54,6.62,8.73,24.36,36.42,28.41c16.24,2.37,24.57-3.38,29.4-14.67
		c5.36-12.53-3.24-31.71-14.46-41.89c-9.87-8.96-16.6-13.37-28.53-21c-10.84-6.93-15-10.13-17.67-15.25
		c-2.28-4.37,1.54-4.44,3.6-3.92c2.99,0.76,7.33,3.71,9.67,6.69l1.85,2.58l21.27,11.5l-6.16-8.23
		c-8.49-9.89-21.18-20.41-32.83-23.76c-9.64-2.77-20.54-2.42-21.28,7.33c-0.39,5.09,2.72,13.41,10.12,20.65
		c6.2,6.07,17.52,15.45,29.21,22.29c14.12,8.26,17.63,16.11,18.75,20.79c1.18,4.97-2.11,8.59-6.34,7.64
		c-4.57-1.02-7.62-5.39-8.67-9.36c-0.79-2.96-2.53-8.21-2.53-8.21C337.01,165.2,323.51,161.12,323.51,161.12z"/>
	<path class="st4" d="M96,179.99c0,0-3.41,7.79-6.52,18.19c-3.96,13.25,16.06,22.47,33.16,19.47c17.2-3.01,25.14-9.06,31.82-18.81
		c5.73-8.37,10.17-22.91,5.58-34.15c-3.41-8.36-10.88-14.62-15.11-19.68c-6.76-8.08-0.89-15.55,2.33-19.24
		c3.01-3.44,6.81-5.43,9.17-5.42c3.61,0.02,2.44,3.67,1.05,6.2l-3.15,5.82c0,0,8.01-2.61,23.7-6.72l4.22-9.78
		c4.03-8.61-6.68-11.92-21.02-7.01c-6.54,2.24-17.92,7.05-26.24,13.44c-8.17,6.27-12.96,10.03-16.63,17.14
		c-2.85,5.53-2.56,14.02,2.77,21.63c3.01,4.31,10.12,10.72,9.13,16.33c-0.7,3.96-2.56,9.51-8.65,10.68
		c-4.75,0.91-7.92-2.97-5.2-10.76c1.55-4.44,3.27-8.65,3.27-8.65C108.44,173.31,96,179.99,96,179.99z"/>
	<path class="st4" d="M300.34,176.02c-0.03,0-0.07-0.01-0.1-0.01c-5.58-0.82-9.42-1.28-9.42-1.28c-1.75-12.03-4.66-29.19-4.67-29.25
		c0,0,12.14,1.42,17.67,3.13c-1.68-7.86-4.12-15.62-4.12-15.62c-5.52-1.32-11.03-2.19-16.54-2.87c-2.12-11.05-4.21-19.17-4.21-19.17
		s5.99,0.62,10.68,1.78l2.21,6.23c0,0,8.81,1.4,14.3,3.34c-5.75-14.34-10.35-22.06-10.35-22.06c-15.95-4.91-31.94-7.34-45.91-7.41
		l0.87,16.16l5.46,0.12c0,0,3.32,41.23,4.55,63.59l-6.72-0.16l1.72,35.73c15.44-0.02,33.62,0.73,49.55,1.75
		c1.01,0.06,2.01,0.13,3,0.2C305.13,192.9,301.54,180.08,300.34,176.02z"/>
</g>
</svg>
