<svg width="307" height="88" viewBox="0 0 307 88" fill="none" xmlns="http://www.w3.org/2000/svg">
<path d="M286.753 16.9914C216.386 16.9914 220.955 78.5 153.852 78.5C79.1401 78.5 93.1399 16.9914 20.9513 16.9914C-51.2373 16.9914 80.4531 0.5 153.852 0.5C227.251 0.5 357.12 16.9914 286.753 16.9914Z" fill="#529A56"/>
<path d="M105.29 45V26.25H120.29C121.325 26.25 122.204 26.6211 122.927 27.3633C123.669 28.1055 124.04 28.9844 124.04 30V45H120.29V31.875C120.29 31.3672 120.104 30.9277 119.733 30.5566C119.362 30.1855 118.923 30 118.415 30H109.04V45H105.29ZM131.07 45C130.015 45 129.127 44.6387 128.404 43.916C127.681 43.1738 127.32 42.2852 127.32 41.25V26.25H146.07V30H132.945C132.418 30 131.968 30.1855 131.597 30.5566C131.246 30.9277 131.07 31.3672 131.07 31.875C131.07 32.4023 131.246 32.8516 131.597 33.2227C131.968 33.5742 132.418 33.75 132.945 33.75H146.07V37.5H132.945C132.418 37.5 131.968 37.6855 131.597 38.0566C131.246 38.4277 131.07 38.8672 131.07 39.375C131.07 39.9023 131.246 40.3516 131.597 40.7227C131.968 41.0742 132.418 41.25 132.945 41.25H146.07V45H131.07ZM153.1 45C152.045 45 151.157 44.6387 150.434 43.916C149.711 43.1738 149.35 42.2852 149.35 41.25V26.25H153.1V39.375C153.1 39.9023 153.276 40.3516 153.627 40.7227C153.998 41.0742 154.448 41.25 154.975 41.25H158.725C159.233 41.25 159.672 41.0742 160.043 40.7227C160.414 40.3516 160.6 39.9023 160.6 39.375V26.25H164.35V39.375C164.35 39.9023 164.526 40.3516 164.877 40.7227C165.248 41.0742 165.698 41.25 166.225 41.25H169.975C170.483 41.25 170.922 41.0742 171.293 40.7227C171.664 40.3516 171.85 39.9023 171.85 39.375V26.25H175.6V45H153.1ZM178.88 45V41.25H192.005C192.513 41.25 192.952 41.0742 193.323 40.7227C193.695 40.3516 193.88 39.9023 193.88 39.375C193.88 38.8672 193.695 38.4277 193.323 38.0566C192.952 37.6855 192.513 37.5 192.005 37.5H182.63C181.575 37.5 180.687 37.1387 179.964 36.416C179.241 35.6738 178.88 34.7852 178.88 33.75V30C178.88 28.9648 179.241 28.0859 179.964 27.3633C180.706 26.6211 181.595 26.25 182.63 26.25H197.63V30H184.505C183.978 30 183.529 30.1855 183.157 30.5566C182.806 30.9277 182.63 31.3672 182.63 31.875C182.63 32.4023 182.806 32.8516 183.157 33.2227C183.529 33.5742 183.978 33.75 184.505 33.75H193.88C194.915 33.75 195.794 34.1211 196.517 34.8633C197.259 35.6055 197.63 36.4844 197.63 37.5V41.25C197.63 42.3047 197.259 43.1934 196.517 43.916C195.775 44.6387 194.896 45 193.88 45H178.88Z" fill="white"/>
</svg>
