<svg width="34" height="31" viewBox="0 0 34 31" fill="none" xmlns="http://www.w3.org/2000/svg">
<g clip-path="url(#clip0)">
<path d="M26.1086 21.63C24.7624 19.1044 21.7922 16.1662 17.8678 13.7482C14.0911 11.4212 10.2745 10.0954 7.44269 9.94421C5.47161 9.83771 3.97704 10.2984 3.3081 11.3841C2.31537 12.9952 3.36194 15.603 5.77579 18.2872C7.32924 20.0173 9.45273 21.7771 11.9665 23.3259C14.6237 24.9632 17.2979 26.1048 19.6357 26.6903C22.9402 27.5159 25.5701 27.2417 26.5262 25.6901C27.1585 24.6639 26.9617 23.2295 26.1086 21.63Z" stroke="#FF764F" stroke-miterlimit="10"/>
<path d="M22.1678 9.46247C22.1739 9.45256 22.1831 9.43769 22.1892 9.42777C22.5833 8.78827 22.3668 7.93674 21.7025 7.52742C21.0382 7.1181 20.1802 7.30764 19.7862 7.94714C19.7801 7.95706 19.774 7.96697 19.7648 7.98185C20.1819 8.17726 20.5919 8.40252 20.9937 8.65013C21.4079 8.90533 21.7945 9.17773 22.1678 9.46247Z" stroke="#FF764F" stroke-miterlimit="10"/>
<path d="M22.1678 9.46208C21.7975 9.17237 21.4079 8.90493 20.9978 8.65226C20.5959 8.40465 20.186 8.17939 19.7689 7.98397C15.2683 5.84011 10.1575 6.62381 7.32493 9.8713C10.1567 10.0225 13.9733 11.3482 17.7501 13.6753C21.6744 16.0933 24.6447 19.0315 25.9908 21.5571C27.7201 17.5477 26.1382 12.5582 22.1678 9.46208Z" stroke="#FF764F" stroke-miterlimit="10"/>
</g>
<defs>
<clipPath id="clip0">
<rect width="27.7533" height="19.1399" fill="white" transform="translate(10.041) rotate(31.6396)"/>
</clipPath>
</defs>
</svg>
